REM DIRINDEX 1\4,1\2\5,1\2\6,1\3\7,1\3\8
REM DIRNAME folder01,folder02,folder03,folder04,folder05,folder06,folder07,folder08
TITLE ""
FILE "097_Day49_Check2_Phrases.mp3" MP3
  TRACK 01 AUDIO
    TITLE "0:"
    INDEX 01 00:00:00
  TRACK 02 AUDIO
    TITLE "4:cjc124_3171"
    INDEX 01 00:00:33
  TRACK 03 AUDIO
    TITLE "0:"
    INDEX 01 00:01:58
  TRACK 04 AUDIO
    TITLE "5:cjc124_3172"
    INDEX 01 00:02:16
  TRACK 05 AUDIO
    TITLE "0:"
    INDEX 01 00:04:40
  TRACK 06 AUDIO
    TITLE "6:cjc124_3173"
    INDEX 01 00:04:64
  TRACK 07 AUDIO
    TITLE "0:"
    INDEX 01 00:06:43
  TRACK 08 AUDIO
    TITLE "5:cjc124_3174"
    INDEX 01 00:07:07
  TRACK 09 AUDIO
    TITLE "0:"
    INDEX 01 00:08:64
  TRACK 10 AUDIO
    TITLE "6:cjc124_3175"
    INDEX 01 00:09:08
  TRACK 11 AUDIO
    TITLE "0:"
    INDEX 01 00:10:41
  TRACK 12 AUDIO
    TITLE "5:cjc124_3176"
    INDEX 01 00:11:19
  TRACK 13 AUDIO
    TITLE "0:"
    INDEX 01 00:12:63
  TRACK 14 AUDIO
    TITLE "6:cjc124_3177"
    INDEX 01 00:13:02
  TRACK 15 AUDIO
    TITLE "0:"
    INDEX 01 00:14:62
  TRACK 16 AUDIO
    TITLE "5:cjc124_3178"
    INDEX 01 00:15:25
  TRACK 17 AUDIO
    TITLE "0:"
    INDEX 01 00:17:25
  TRACK 18 AUDIO
    TITLE "6:cjc124_3179"
    INDEX 01 00:17:45
  TRACK 19 AUDIO
    TITLE "0:"
    INDEX 01 00:19:11
  TRACK 20 AUDIO
    TITLE "5:cjc124_3180"
    INDEX 01 00:19:60
  TRACK 21 AUDIO
    TITLE "0:"
    INDEX 01 00:22:40
  TRACK 22 AUDIO
    TITLE "6:cjc124_3181"
    INDEX 01 00:22:62
  TRACK 23 AUDIO
    TITLE "0:"
    INDEX 01 00:26:15
  TRACK 24 AUDIO
    TITLE "5:cjc124_3182"
    INDEX 01 00:26:54
  TRACK 25 AUDIO
    TITLE "0:"
    INDEX 01 00:28:49
  TRACK 26 AUDIO
    TITLE "6:cjc124_3183"
    INDEX 01 00:28:68
  TRACK 27 AUDIO
    TITLE "0:"
    INDEX 01 00:30:46
  TRACK 28 AUDIO
    TITLE "5:cjc124_3184"
    INDEX 01 00:31:08
  TRACK 29 AUDIO
    TITLE "0:"
    INDEX 01 00:33:13
  TRACK 30 AUDIO
    TITLE "6:cjc124_3185"
    INDEX 01 00:33:32
  TRACK 31 AUDIO
    TITLE "0:"
    INDEX 01 00:35:10
  TRACK 32 AUDIO
    TITLE "5:cjc124_3186"
    INDEX 01 00:35:51
  TRACK 33 AUDIO
    TITLE "0:"
    INDEX 01 00:37:65
  TRACK 34 AUDIO
    TITLE "6:cjc124_3187"
    INDEX 01 00:38:06
  TRACK 35 AUDIO
    TITLE "0:"
    INDEX 01 00:40:19
  TRACK 36 AUDIO
    TITLE "5:cjc124_3188"
    INDEX 01 00:40:62
  TRACK 37 AUDIO
    TITLE "0:"
    INDEX 01 00:43:64
  TRACK 38 AUDIO
    TITLE "6:cjc124_3189"
    INDEX 01 00:44:07
  TRACK 39 AUDIO
    TITLE "0:"
    INDEX 01 00:46:39
  TRACK 40 AUDIO
    TITLE "5:cjc124_3190"
    INDEX 01 00:46:74
  TRACK 41 AUDIO
    TITLE "0:"
    INDEX 01 00:48:49
  TRACK 42 AUDIO
    TITLE "6:cjc124_3191"
    INDEX 01 00:48:65
  TRACK 43 AUDIO
    TITLE "0:"
    INDEX 01 00:50:13
  TRACK 44 AUDIO
    TITLE "5:cjc124_3192"
    INDEX 01 00:50:56
  TRACK 45 AUDIO
    TITLE "0:"
    INDEX 01 00:52:43
  TRACK 46 AUDIO
    TITLE "6:cjc124_3193"
    INDEX 01 00:52:61
  TRACK 47 AUDIO
    TITLE "0:"
    INDEX 01 00:54:64
  TRACK 48 AUDIO
    TITLE "5:cjc124_3194"
    INDEX 01 00:55:38
  TRACK 49 AUDIO
    TITLE "0:"
    INDEX 01 00:57:58
  TRACK 50 AUDIO
    TITLE "6:cjc124_3195"
    INDEX 01 00:58:07
  TRACK 51 AUDIO
    TITLE "0:"
    INDEX 01 00:59:36
  TRACK 52 AUDIO
    TITLE "5:cjc124_3196"
    INDEX 01 01:00:00
  TRACK 53 AUDIO
    TITLE "0:"
    INDEX 01 01:01:46
  TRACK 54 AUDIO
    TITLE "6:cjc124_3197"
    INDEX 01 01:01:66
  TRACK 55 AUDIO
    TITLE "0:"
    INDEX 01 01:02:73
  TRACK 56 AUDIO
    TITLE "5:cjc124_3198"
    INDEX 01 01:03:37
  TRACK 57 AUDIO
    TITLE "0:"
    INDEX 01 01:05:17
  TRACK 58 AUDIO
    TITLE "6:cjc124_3199"
    INDEX 01 01:05:36
  TRACK 59 AUDIO
    TITLE "0:"
    INDEX 01 01:07:14
  TRACK 60 AUDIO
    TITLE "5:cjc124_3200"
    INDEX 01 01:07:53
  TRACK 61 AUDIO
    TITLE "0:"
    INDEX 01 01:10:31
  TRACK 62 AUDIO
    TITLE "6:cjc124_3201"
    INDEX 01 01:10:51
  TRACK 63 AUDIO
    TITLE "0:"
    INDEX 01 01:12:23
  TRACK 64 AUDIO
    TITLE "5:cjc124_3202"
    INDEX 01 01:12:62
  TRACK 65 AUDIO
    TITLE "0:"
    INDEX 01 01:14:29
  TRACK 66 AUDIO
    TITLE "6:cjc124_3203"
    INDEX 01 01:14:49
  TRACK 67 AUDIO
    TITLE "0:"
    INDEX 01 01:15:74
